<svg xmlns="http://www.w3.org/2000/svg" width="900" height="650" viewBox="0 0 900 650">
<rect width="100%" height="100%" fill="#f6f8fb"/>
<text x="70" y="36" font-family="Arial" font-size="22" font-weight="700" fill="#1c232d">Path trace: 20260602_225152_115</text>
<rect x="70" y="70" width="760" height="510" fill="#ffffff" stroke="#c9d3df" stroke-width="2"/>
<line x1="70.00" y1="70" x2="70.00" y2="580" stroke="#e8edf4"/>
<line x1="70" y1="70.00" x2="830" y2="70.00" stroke="#e8edf4"/>
<line x1="260.00" y1="70" x2="260.00" y2="580" stroke="#e8edf4"/>
<line x1="70" y1="197.50" x2="830" y2="197.50" stroke="#e8edf4"/>
<line x1="450.00" y1="70" x2="450.00" y2="580" stroke="#e8edf4"/>
<line x1="70" y1="325.00" x2="830" y2="325.00" stroke="#e8edf4"/>
<line x1="640.00" y1="70" x2="640.00" y2="580" stroke="#e8edf4"/>
<line x1="70" y1="452.50" x2="830" y2="452.50" stroke="#e8edf4"/>
<line x1="830.00" y1="70" x2="830.00" y2="580" stroke="#e8edf4"/>
<line x1="70" y1="580.00" x2="830" y2="580.00" stroke="#e8edf4"/>
<polyline points="830.00,269.37 279.49,200.76 339.44,320.68 391.72,473.76 470.03,536.12 507.21,580.00 563.36,580.00 511.20,530.43 523.99,580.00 472.16,555.60 506.70,580.00 506.70,580.00 596.04,580.00 680.86,580.00 771.84,580.00 551.14,516.29" fill="none" stroke="#1c846f" stroke-width="4" stroke-linejoin="round" stroke-linecap="round"/>
<circle cx="830.00" cy="269.37" r="6" fill="#de962d"/>
<circle cx="279.49" cy="200.76" r="6" fill="#6b4bb8"/>
<circle cx="339.44" cy="320.68" r="6" fill="#1c846f"/>
<circle cx="391.72" cy="473.76" r="6" fill="#1c846f"/>
<circle cx="470.03" cy="536.12" r="6" fill="#de962d"/>
<circle cx="507.21" cy="580.00" r="6" fill="#1c846f"/>
<circle cx="563.36" cy="580.00" r="6" fill="#1c846f"/>
<circle cx="511.20" cy="530.43" r="6" fill="#de962d"/>
<circle cx="523.99" cy="580.00" r="6" fill="#1c846f"/>
<circle cx="472.16" cy="555.60" r="6" fill="#de962d"/>
<circle cx="506.70" cy="580.00" r="6" fill="#1c846f"/>
<circle cx="506.70" cy="580.00" r="6" fill="#1c846f"/>
<circle cx="596.04" cy="580.00" r="6" fill="#1c846f"/>
<circle cx="680.86" cy="580.00" r="6" fill="#1c846f"/>
<circle cx="771.84" cy="580.00" r="6" fill="#1c846f"/>
<circle cx="551.14" cy="516.29" r="6" fill="#de962d"/>
<line x1="60.00" y1="70.00" x2="80.00" y2="70.00" stroke="#6b4bb8" stroke-width="3"/>
<line x1="70.00" y1="60.00" x2="70.00" y2="80.00" stroke="#6b4bb8" stroke-width="3"/>
<line x1="60.00" y1="70.00" x2="80.00" y2="70.00" stroke="#6b4bb8" stroke-width="3"/>
<line x1="70.00" y1="60.00" x2="70.00" y2="80.00" stroke="#6b4bb8" stroke-width="3"/>
<line x1="60.00" y1="70.00" x2="80.00" y2="70.00" stroke="#6b4bb8" stroke-width="3"/>
<line x1="70.00" y1="60.00" x2="70.00" y2="80.00" stroke="#6b4bb8" stroke-width="3"/>
<line x1="60.00" y1="70.00" x2="80.00" y2="70.00" stroke="#6b4bb8" stroke-width="3"/>
<line x1="70.00" y1="60.00" x2="70.00" y2="80.00" stroke="#6b4bb8" stroke-width="3"/>
<line x1="60.00" y1="70.00" x2="80.00" y2="70.00" stroke="#6b4bb8" stroke-width="3"/>
<line x1="70.00" y1="60.00" x2="70.00" y2="80.00" stroke="#6b4bb8" stroke-width="3"/>
<line x1="60.00" y1="70.00" x2="80.00" y2="70.00" stroke="#6b4bb8" stroke-width="3"/>
<line x1="70.00" y1="60.00" x2="70.00" y2="80.00" stroke="#6b4bb8" stroke-width="3"/>
<line x1="60.00" y1="70.00" x2="80.00" y2="70.00" stroke="#6b4bb8" stroke-width="3"/>
<line x1="70.00" y1="60.00" x2="70.00" y2="80.00" stroke="#6b4bb8" stroke-width="3"/>
<line x1="60.00" y1="70.00" x2="80.00" y2="70.00" stroke="#6b4bb8" stroke-width="3"/>
<line x1="70.00" y1="60.00" x2="70.00" y2="80.00" stroke="#6b4bb8" stroke-width="3"/>
<line x1="60.00" y1="70.00" x2="80.00" y2="70.00" stroke="#6b4bb8" stroke-width="3"/>
<line x1="70.00" y1="60.00" x2="70.00" y2="80.00" stroke="#6b4bb8" stroke-width="3"/>
<line x1="60.00" y1="70.00" x2="80.00" y2="70.00" stroke="#6b4bb8" stroke-width="3"/>
<line x1="70.00" y1="60.00" x2="70.00" y2="80.00" stroke="#6b4bb8" stroke-width="3"/>
<line x1="60.00" y1="70.00" x2="80.00" y2="70.00" stroke="#6b4bb8" stroke-width="3"/>
<line x1="70.00" y1="60.00" x2="70.00" y2="80.00" stroke="#6b4bb8" stroke-width="3"/>
<line x1="60.00" y1="70.00" x2="80.00" y2="70.00" stroke="#6b4bb8" stroke-width="3"/>
<line x1="70.00" y1="60.00" x2="70.00" y2="80.00" stroke="#6b4bb8" stroke-width="3"/>
<line x1="60.00" y1="70.00" x2="80.00" y2="70.00" stroke="#6b4bb8" stroke-width="3"/>
<line x1="70.00" y1="60.00" x2="70.00" y2="80.00" stroke="#6b4bb8" stroke-width="3"/>
<line x1="60.00" y1="70.00" x2="80.00" y2="70.00" stroke="#6b4bb8" stroke-width="3"/>
<line x1="70.00" y1="60.00" x2="70.00" y2="80.00" stroke="#6b4bb8" stroke-width="3"/>
<line x1="60.00" y1="70.00" x2="80.00" y2="70.00" stroke="#6b4bb8" stroke-width="3"/>
<line x1="70.00" y1="60.00" x2="70.00" y2="80.00" stroke="#6b4bb8" stroke-width="3"/>
<line x1="60.00" y1="70.00" x2="80.00" y2="70.00" stroke="#6b4bb8" stroke-width="3"/>
<line x1="70.00" y1="60.00" x2="70.00" y2="80.00" stroke="#6b4bb8" stroke-width="3"/>
<circle cx="70.00" cy="70.00" r="8" fill="#3768aa" stroke="#ffffff" stroke-width="3"/>
<text x="82.00" y="60.00" font-family="Arial" font-size="13" fill="#1c232d">go6G</text>
<circle cx="70.00" cy="580.00" r="8" fill="#3768aa" stroke="#ffffff" stroke-width="3"/>
<text x="82.00" y="570.00" font-family="Arial" font-size="13" fill="#1c232d">yiBb</text>
<circle cx="830.00" cy="580.00" r="8" fill="#3768aa" stroke="#ffffff" stroke-width="3"/>
<text x="842.00" y="570.00" font-family="Arial" font-size="13" fill="#1c232d">SamA15</text>
<circle cx="450.00" cy="325.00" r="8" fill="#3768aa" stroke="#ffffff" stroke-width="3"/>
<text x="462.00" y="315.00" font-family="Arial" font-size="13" fill="#1c232d">Red10</text>
<text x="70" y="626" font-family="Arial" font-size="13" fill="#5f6a78">green=render/fused path, orange=BLE fix, purple=anchor, cross=ground truth when present</text>
</svg>
